<svg height="682pt" viewBox="-21 -101 682.66669 682" width="682pt" xmlns="http://www.w3.org/2000/svg"><path d="m457.597656 106.890625c-4.414062-34.6875-22.835937-66.050781-50.988281-86.796875-.472656-.4375-.988281-.828125-1.539063-1.164062-35.871093-25.789063-82.523437-31.207032-123.34375-14.304688-40.820312 16.894531-70 53.695312-77.140624 97.292969-124.503907 24.476562-204.585938 84.554687-204.585938 154.300781 0 80.070312 110.039062 148.453125 261.640625 162.59375 2.808594.199219 4.996094 2.519531 5.023437 5.335938v29.40625c0 11.726562 9.46875 21.257812 21.195313 21.332031 6.132813-.082031 11.960937-2.691407 16.109375-7.207031l74.664062-92.253907c4.617188-4.71875 6.796876-11.304687 5.898438-17.839843-.898438-6.535157-4.773438-12.289063-10.492188-15.585938l-74.75-55.804688c-.492187-.371093-1.011718-.691406-1.558593-.960937-6.617188-3.390625-14.519531-3.089844-20.855469.785156-6.34375 3.878907-10.210938 10.773438-10.210938 18.203125v23.46875c.007813 1.496094-.632812 2.929688-1.757812 3.925782-1.1875 1.058593-2.765625 1.566406-4.351562 1.386718-121.34375-13.230468-175.222657-60.898437-175.222657-76.785156 0-15.707031 46.078125-52.859375 134.039063-70.332031 17.785156 31.621093 48.203125 54.171875 83.628906 62.003906 35.421875 7.835937 72.507812.214844 101.96875-20.957031.660156-.390625 1.277344-.855469 1.835938-1.378906 13.023437-9.65625 24.109374-21.691407 32.664062-35.46875 76.605469 18.894531 115.199219 52.175781 115.199219 66.132812 0 12.121094-32.839844 44.527344-108.714844 64.558594-7.613281 1.972656-13.523437 7.96875-15.382813 15.605468-1.859374 7.636719.636719 15.675782 6.484376 20.925782l34.921874 31.148437c4.90625 4.378907 11.25 6.800781 17.828126 6.804688 2.898437 0 5.785156-.476563 8.53125-1.417969 88.695312-30.386719 141.664062-81.847656 141.664062-137.625 0-64.328125-71.402344-122.429688-182.402344-149.328125zm-393.597656 149.328125c0 37.089844 78.046875 85.339844 194.242188 98.019531 7.597656.816407 15.191406-1.617187 20.902343-6.699219 5.640625-5.058593 8.859375-12.277343 8.855469-19.847656l.085938-23.277344 73.75 55.046876c.460937.34375.34375 1.421874.863281 1.699218l-74.699219 92.394532v-29.449219c-.023438-13.816407-10.59375-25.335938-24.363281-26.527344-138.132813-12.886719-242.304688-73.667969-242.304688-141.359375 0-57.148438 72.394531-109.375 181.386719-132.199219.140625 14.304688 2.695312 28.480469 7.5625 41.933594-91.796875 19.261719-146.28125 60.144531-146.28125 90.265625zm160-133.328125c-.015625-35.667969 17.800781-68.980469 47.476562-88.761719 29.675782-19.785156 67.277344-23.417968 100.195313-9.679687-32.085937 13.246093-55.730469 41.257812-63.40625 75.109375-1.695313 7.664062-2.554687 15.484375-2.558594 23.332031.019531 43.121094 25.996094 81.988281 65.835938 98.496094-32.910157 13.679687-70.484375 10.015625-100.121094-9.777344-29.644531-19.789063-47.4375-53.078125-47.421875-88.71875zm172.542969 83.71875c-40.289063-7.558594-69.488281-42.726563-69.503907-83.71875.039063-6.289063.753907-12.554687 2.136719-18.691406 7.550781-33.195313 34.140625-58.707031 67.613281-64.894531 25.667969 20.1875 40.636719 51.046874 40.597657 83.699218-.035157 32.65625-15.078125 63.480469-40.789063 83.605469zm94.859375 167.050781c-1.816406.585938-3.816406.15625-5.226563-1.125l-34.828125-31.128906c73.453125-19.359375 124.652344-54.390625 124.652344-85.1875 0-31.378906-52.542969-66.492188-126.625-85.691406 5.296875-13.238282 8.335938-27.265625 8.984375-41.503906 97.777344 24.96875 160.308594 74.101562 160.308594 127.195312 0 46.242188-47.574219 90.136719-127.265625 117.441406zm0 0"/><path d="m275.199219 86.621094c3.535156-4.710938 2.578125-11.398438-2.132813-14.933594-4.710937-3.535156-11.394531-2.578125-14.933594 2.136719-21.980468 31.222656-16.960937 73.988281 11.65625 99.269531 4.191407 4.042969 10.839844 3.984375 14.957032-.125 4.113281-4.117188 4.167968-10.765625.128906-14.957031-20.976562-17.835938-25.148438-48.613281-9.675781-71.390625zm0 0"/></svg>